<svg width="572" height="572" viewBox="0 0 572 572" fill="none" xmlns="http://www.w3.org/2000/svg">
<path d="M286 0L294.976 171.953L330.74 3.52115L312.706 174.761L374.379 13.9978L329.779 180.308L415.841 31.1721L345.774 188.458L454.107 54.6211L360.297 199.01L488.233 83.7675L372.99 211.703L517.379 117.893L383.542 226.226L540.828 156.159L391.692 242.221L558.002 197.621L397.239 259.294L568.479 241.26L400.047 277.024L572 286L400.047 294.976L568.479 330.74L397.239 312.706L558.002 374.379L391.692 329.779L540.828 415.841L383.542 345.774L517.379 454.107L372.99 360.297L488.233 488.233L360.297 372.99L454.107 517.379L345.774 383.542L415.841 540.828L329.779 391.692L374.379 558.002L312.706 397.239L330.74 568.479L294.976 400.047L286 572L277.024 400.047L241.26 568.479L259.294 397.239L197.621 558.002L242.221 391.692L156.159 540.828L226.226 383.542L117.893 517.379L211.703 372.99L83.7675 488.233L199.01 360.297L54.6211 454.107L188.458 345.774L31.1721 415.841L180.308 329.779L13.9978 374.379L174.761 312.706L3.52115 330.74L171.953 294.976L0 286L171.953 277.024L3.52115 241.26L174.761 259.294L13.9978 197.621L180.308 242.221L31.1721 156.159L188.458 226.226L54.6211 117.893L199.01 211.703L83.7675 83.7675L211.703 199.01L117.893 54.6211L226.226 188.458L156.159 31.1721L242.221 180.308L197.621 13.9978L259.294 174.761L241.26 3.52115L277.024 171.953L286 0Z" fill="url(#paint0_linear_305_1701)"/>
<defs>
<linearGradient id="paint0_linear_305_1701" x1="286" y1="1.36663e-06" x2="263.072" y2="408.485" gradientUnits="userSpaceOnUse">
<stop stop-color="#3796BC"/>
<stop offset="1" stop-color="#F6FD9B"/>
</linearGradient>
</defs>
</svg>
